# xmcd CD database file generated by OrangeCD 6.4
#
# Track frame offsets:
#	150
#	20137
#	50254
#	176882
#	206369
#	207746
#	212464
#	220519
#	222748
#	224559
#	227283
#	235511
#	237863
#	242943
#	256259
#	265935
#	280260
#	297836
#	299160
#	301317
#	311361
#	314314
#	326944
#
# Disc length: 4461 seconds
#
# Revision: 0
# Processed by: cddbd v1.5.2PL0 Copyright (c) Steve Scherf et al.
# Submitted via: OrangeCD 6.4
#
DISCID=70116b17
DTITLE=Jimi Hendrix - The Late Studio Sessions 1969-1970
DYEAR=2010
DGENRE=Blues Rock
TTITLE0=Izabella
TTITLE1=Steping Stone/Villanova Junction Blues
TTITLE2=Keep On Grooving (Jam JS21)
TTITLE3=Power Of Soul Session 1
TTITLE4=Power Of Soul Session 2
TTITLE5=Power Of Soul Session 3
TTITLE6=Power Of Soul Session 4
TTITLE7=Power Of Soul Session 5
TTITLE8=Power Of Soul Session 6
TTITLE9=Power Of Soul Session 7
TTITLE10=Power Of Soul Session 8
TTITLE11=Power Of Soul Session 9
TTITLE12=Power Of Soul Session 10
TTITLE13=Power Of Soul Session 11
TTITLE14=Power Of Soul Session 12
TTITLE15=Power Of Soul Session 13
TTITLE16=Power Of Soul Session 14
TTITLE17=Power Of Soul Session 15
TTITLE18=Power Of Soul Session 16
TTITLE19=Power Of Soul Session 17
TTITLE20=Power Of Soul Session 18
TTITLE21=Power Of Soul Session 19
TTITLE22=Power Of Soul Session 20
EXTD=
EXTT0=
EXTT1=
EXTT2=
EXTT3=
EXTT4=
EXTT5=
EXTT6=
EXTT7=
EXTT8=
EXTT9=
EXTT10=
EXTT11=
EXTT12=
EXTT13=
EXTT14=
EXTT15=
EXTT16=
EXTT17=
EXTT18=
EXTT19=
EXTT20=
EXTT21=
EXTT22=
PLAYORDER=
